<svg width="127" height="28" viewBox="0 0 127 28" fill="none" xmlns="http://www.w3.org/2000/svg">
<g clip-path="url(#clip0_46_2)">
<path d="M12 26C17.5228 26 22 21.5228 22 16C22 10.4772 17.5228 6 12 6C6.47715 6 2 10.4772 2 16C2 21.5228 6.47715 26 12 26Z" stroke="#27272A" stroke-width="2" stroke-linecap="round" stroke-linejoin="round"/>
<path d="M12 26C17.5228 26 22 21.5228 22 16H2C2 21.5228 6.47715 26 12 26Z" fill="#27272A"/>
<path d="M35.8864 26V23.3864L44.8864 12.1023V11.9545H36.1818V8.54545H49.9205V11.3523L41.3523 22.4432V22.5909H50.2159V26H35.8864ZM61.3097 26.3409C59.5597 26.3409 58.0483 25.9773 56.7756 25.25C55.5104 24.5152 54.5369 23.4773 53.8551 22.1364C53.1733 20.7879 52.8324 19.2008 52.8324 17.375C52.8324 15.5795 53.1733 14.0038 53.8551 12.6477C54.5445 11.2841 55.5066 10.2235 56.7415 9.46591C57.9763 8.70076 59.4271 8.31818 61.0938 8.31818C62.1695 8.31818 63.1847 8.49242 64.1392 8.84091C65.1013 9.18182 65.9498 9.71212 66.6847 10.4318C67.4271 11.1515 68.0104 12.0682 68.4347 13.1818C68.8589 14.2879 69.071 15.6061 69.071 17.1364V18.3977H54.7642V15.625H65.1278C65.1203 14.8371 64.9498 14.1364 64.6165 13.5227C64.2831 12.9015 63.8172 12.4129 63.2188 12.0568C62.6278 11.7008 61.9384 11.5227 61.1506 11.5227C60.3097 11.5227 59.571 11.7273 58.9347 12.1364C58.2983 12.5379 57.8021 13.0682 57.446 13.7273C57.0975 14.3788 56.9195 15.0947 56.9119 15.875V18.2955C56.9119 19.3106 57.0975 20.1818 57.4688 20.9091C57.84 21.6288 58.3589 22.1818 59.0256 22.5682C59.6922 22.947 60.4725 23.1364 61.3665 23.1364C61.965 23.1364 62.5066 23.053 62.9915 22.8864C63.4763 22.7121 63.8968 22.4583 64.2528 22.125C64.6089 21.7917 64.8778 21.3788 65.0597 20.8864L68.9006 21.3182C68.6581 22.3333 68.196 23.2197 67.5142 23.9773C66.84 24.7273 65.9763 25.3106 64.9233 25.7273C63.8703 26.1364 62.6657 26.3409 61.3097 26.3409ZM72.5511 26V8.54545H76.483V11.5114H76.6875C77.0511 10.5114 77.6534 9.73106 78.4943 9.17045C79.3352 8.60227 80.339 8.31818 81.5057 8.31818C82.6875 8.31818 83.6837 8.60606 84.4943 9.18182C85.3125 9.75 85.8883 10.5265 86.2216 11.5114H86.4034C86.7898 10.5417 87.4413 9.76894 88.358 9.19318C89.2822 8.60985 90.3769 8.31818 91.642 8.31818C93.2481 8.31818 94.5587 8.82576 95.5739 9.84091C96.589 10.8561 97.0966 12.3371 97.0966 14.2841V26H92.9716V14.9205C92.9716 13.8371 92.6837 13.0455 92.108 12.5455C91.5322 12.0379 90.8277 11.7841 89.9943 11.7841C89.0019 11.7841 88.2254 12.0947 87.6648 12.7159C87.1117 13.3295 86.8352 14.1288 86.8352 15.1136V26H82.8011V14.75C82.8011 13.8485 82.5284 13.1288 81.983 12.5909C81.4451 12.053 80.7405 11.7841 79.8693 11.7841C79.2784 11.7841 78.7405 11.9356 78.2557 12.2386C77.7708 12.5341 77.3845 12.9545 77.0966 13.5C76.8087 14.0379 76.6648 14.6667 76.6648 15.3864V26H72.5511ZM101.27 26V8.54545H105.384V26H101.27ZM103.338 6.06818C102.687 6.06818 102.126 5.85227 101.656 5.42045C101.187 4.98106 100.952 4.45454 100.952 3.84091C100.952 3.2197 101.187 2.69318 101.656 2.26136C102.126 1.82197 102.687 1.60227 103.338 1.60227C103.997 1.60227 104.558 1.82197 105.02 2.26136C105.49 2.69318 105.724 3.2197 105.724 3.84091C105.724 4.45454 105.49 4.98106 105.02 5.42045C104.558 5.85227 103.997 6.06818 103.338 6.06818ZM117.227 26.3409C115.523 26.3409 114.045 25.9659 112.795 25.2159C111.545 24.4659 110.576 23.4167 109.886 22.0682C109.205 20.7197 108.864 19.1439 108.864 17.3409C108.864 15.5379 109.205 13.9583 109.886 12.6023C110.576 11.2462 111.545 10.1932 112.795 9.44318C114.045 8.69318 115.523 8.31818 117.227 8.31818C118.932 8.31818 120.409 8.69318 121.659 9.44318C122.909 10.1932 123.875 11.2462 124.557 12.6023C125.246 13.9583 125.591 15.5379 125.591 17.3409C125.591 19.1439 125.246 20.7197 124.557 22.0682C123.875 23.4167 122.909 24.4659 121.659 25.2159C120.409 25.9659 118.932 26.3409 117.227 26.3409ZM117.25 23.0455C118.174 23.0455 118.947 22.7917 119.568 22.2841C120.189 21.7689 120.652 21.0795 120.955 20.2159C121.265 19.3523 121.42 18.3902 121.42 17.3295C121.42 16.2614 121.265 15.2955 120.955 14.4318C120.652 13.5606 120.189 12.8674 119.568 12.3523C118.947 11.8371 118.174 11.5795 117.25 11.5795C116.303 11.5795 115.515 11.8371 114.886 12.3523C114.265 12.8674 113.799 13.5606 113.489 14.4318C113.186 15.2955 113.034 16.2614 113.034 17.3295C113.034 18.3902 113.186 19.3523 113.489 20.2159C113.799 21.0795 114.265 21.7689 114.886 22.2841C115.515 22.7917 116.303 23.0455 117.25 23.0455Z" fill="#27272A"/>
</g>
<defs>
<clipPath id="clip0_46_2">
<rect width="127" height="28" fill="white"/>
</clipPath>
</defs>
</svg>
